<svg viewBox="0 0 400 400" xmlns="http://www.w3.org/2000/svg"><path d="M266.8 267.2v54.4A63.9 63.9 0 01171 377L56.5 311a63.9 63.9 0 010-110.7L171 134a63.9 63.9 0 0191.3 31.8L216.8 192v-2.7a13.9 13.9 0 00-20.8-12l-114.5 66a13.9 13.9 0 000 24.1L196 333.6a13.9 13.9 0 0020.8-12v-29.5a83.8 83.8 0 0022.2-8.8l27.8-16.1z" fill="#007dce"/><path d="M133.2 132.8l27.8-16c7-4.1 14.5-7 22.2-9V78.5a13.9 13.9 0 0120.8-12l114.5 66a13.9 13.9 0 010 24.1L204 222.6a13.9 13.9 0 01-20.8-12V208L137.7 234A63.9 63.9 0 00229 266l114.5-66a63.9 63.9 0 000-110.7L229 23a63.9 63.9 0 00-95.8 55.3v54.4z" fill="#009aff"/></svg>